<svg xmlns="http://www.w3.org/2000/svg" xmlns:xlink="http://www.w3.org/1999/xlink" width="1080" zoomAndPan="magnify" viewBox="0 0 810 1439.999935" height="1920" preserveAspectRatio="xMidYMid meet" version="1.0"><defs><clipPath id="2d5f51dd43"><path d="M 243.328125 560.914062 L 566 560.914062 L 566 878.835938 L 243.328125 878.835938 Z M 243.328125 560.914062 " clip-rule="nonzero"/></clipPath></defs><g clip-path="url(#2d5f51dd43)"><path fill="#fffefe" d="M 558.527344 702.332031 C 567.324219 711.132812 567.324219 725.394531 558.527344 734.191406 L 420.15625 872.566406 C 415.757812 876.964844 409.988281 879.164062 404.214844 879.164062 C 398.46875 879.164062 392.695312 876.964844 388.296875 872.566406 L 249.925781 734.191406 C 241.128906 725.394531 241.128906 711.132812 249.925781 702.332031 C 258.722656 693.535156 272.988281 693.535156 281.808594 702.332031 L 404.214844 824.765625 L 526.648438 702.332031 C 535.464844 693.535156 549.730469 693.535156 558.527344 702.332031 Z M 388.296875 737.742188 C 392.695312 742.140625 398.46875 744.339844 404.214844 744.339844 C 409.988281 744.339844 415.757812 742.140625 420.15625 737.742188 L 558.527344 599.394531 C 567.324219 590.574219 567.324219 576.308594 558.527344 567.511719 C 549.730469 558.714844 535.464844 558.714844 526.648438 567.511719 L 404.214844 689.941406 L 281.808594 567.511719 C 272.988281 558.714844 258.722656 558.714844 249.925781 567.511719 C 241.128906 576.308594 241.128906 590.574219 249.925781 599.394531 Z M 388.296875 737.742188 " fill-opacity="1" fill-rule="nonzero"/></g></svg>